<svg xmlns="http://www.w3.org/2000/svg" xmlns:xlink="http://www.w3.org/1999/xlink" width="500" zoomAndPan="magnify" viewBox="0 0 375 374.999991" height="500" preserveAspectRatio="xMidYMid meet" version="1.0"><defs><filter x="0%" y="0%" width="100%" height="100%" id="94db1b9a4e"><feColorMatrix values="0 0 0 0 1 0 0 0 0 1 0 0 0 0 1 0 0 0 1 0" color-interpolation-filters="sRGB"/></filter><g/><mask id="0c7cfef3ba"><g filter="url(#94db1b9a4e)"><rect x="-37.5" width="450" fill="#000000" y="-37.499999" height="449.999989" fill-opacity="0.8"/></g></mask><clipPath id="a2baadca04"><path d="M 10 20 L 375 20 L 375 370 L 10 370 Z M 10 20 " clip-rule="nonzero"/></clipPath><clipPath id="ceb10af186"><path d="M 0 1 L 296 1 L 296 344 L 0 344 Z M 0 1 " clip-rule="nonzero"/></clipPath><clipPath id="dd91f8d3ae"><rect x="0" width="375" y="0" height="375"/></clipPath></defs><g mask="url(#0c7cfef3ba)"><g transform="matrix(1, 0, 0, 1, 0, 0)"><g clip-path="url(#dd91f8d3ae)"><g clip-path="url(#a2baadca04)"><path fill="#d9d9d9" d="M 347.6875 147.839844 C 340.75 127.160156 329.957031 107.871094 315.925781 91.359375 C 301.894531 74.691406 284.625 60.800781 265.199219 50.773438 C 245.769531 40.585938 224.183594 34.414062 201.980469 32.714844 C 179.777344 31.019531 157.113281 33.640625 135.835938 41.203125 C 135.835938 41.359375 135.835938 41.511719 135.527344 41.820312 C 134.910156 42.4375 133.675781 43.210938 132.132812 43.828125 C 130.59375 44.597656 128.894531 45.214844 127.199219 45.832031 C 117.792969 49.226562 108.695312 53.703125 99.910156 58.796875 C 84.179688 69.136719 70.613281 82.40625 59.511719 97.375 C 61.671875 94.289062 64.136719 91.511719 66.449219 88.582031 C 68.917969 85.800781 71.382812 83.023438 74.003906 80.402344 C 79.09375 75 84.796875 70.214844 90.65625 65.894531 C 92.351562 64.507812 94.050781 63.425781 95.28125 62.808594 C 96.515625 62.191406 97.289062 62.035156 97.441406 62.5 C 97.441406 62.964844 96.824219 63.734375 95.589844 64.96875 C 94.511719 66.203125 92.816406 67.59375 91.121094 68.980469 C 75.699219 81.171875 61.976562 97.375 51.957031 114.96875 C 41.78125 132.5625 35.304688 151.542969 31.140625 168.828125 C 28.210938 191.359375 30.371094 214.351562 37 235.492188 C 43.628906 256.636719 54.886719 276.082031 69.226562 291.976562 C 83.566406 307.871094 101.140625 320.523438 119.953125 328.859375 C 138.765625 337.191406 158.960938 341.359375 178.542969 341.511719 C 180.085938 341.511719 181.9375 341.667969 182.707031 341.976562 C 183.785156 342.285156 183.476562 342.59375 182.089844 342.59375 C 161.582031 343.519531 139.84375 339.96875 119.027344 331.171875 C 108.695312 326.699219 98.519531 321.140625 89.117188 314.199219 C 79.710938 307.253906 70.765625 299.074219 62.902344 289.816406 C 55.039062 280.554688 48.101562 270.371094 42.550781 259.105469 C 37 247.992188 32.527344 236.109375 29.597656 223.609375 C 26.824219 211.109375 25.4375 198.300781 25.589844 185.183594 L 25.589844 182.714844 L 25.746094 180.246094 L 26.050781 175.308594 C 26.359375 172.066406 26.667969 168.828125 27.132812 165.585938 C 28.210938 159.105469 29.289062 152.625 31.140625 146.296875 L 32.375 141.667969 L 33.917969 137.035156 C 34.839844 133.949219 36.074219 131.019531 37.308594 128.085938 C 29.445312 144.753906 24.355469 163.273438 22.660156 182.871094 C 23.121094 184.875 23.277344 188.117188 23.277344 191.976562 C 23.585938 201.234375 24.664062 210.339844 26.359375 219.289062 C 26.359375 218.828125 26.515625 218.671875 26.667969 218.519531 C 27.285156 218.519531 28.367188 221.757812 29.136719 225.617188 C 33.917969 247.992188 43.476562 269.136719 56.890625 287.652344 C 57.199219 288.117188 57.507812 288.582031 57.816406 288.890625 C 75.085938 311.265625 98.058594 329.167969 123.808594 339.96875 C 149.558594 351.082031 177.925781 355.09375 205.527344 352.007812 C 207.222656 351.851562 208.917969 351.542969 210.613281 351.390625 C 212.3125 351.082031 214.007812 350.925781 215.703125 350.617188 L 220.792969 349.535156 L 223.414062 349.074219 L 225.878906 348.457031 L 230.96875 347.222656 L 235.902344 345.679688 C 239.292969 344.753906 242.378906 343.363281 245.769531 342.285156 C 252.246094 339.660156 258.566406 337.035156 264.582031 333.640625 C 267.664062 332.097656 270.59375 330.246094 273.523438 328.550781 C 275.066406 327.625 276.453125 326.699219 277.839844 325.773438 C 279.230469 324.84375 280.769531 323.917969 282.160156 322.839844 C 304.667969 306.789062 322.710938 284.875 334.429688 260.03125 C 334.890625 258.488281 335.816406 256.480469 336.585938 255.554688 C 337.359375 254.476562 337.664062 254.785156 337.203125 256.328125 C 337.511719 256.328125 337.972656 256.171875 337.820312 256.636719 C 330.726562 275.925781 320.089844 293.671875 306.058594 309.257812 C 291.871094 324.691406 274.140625 337.808594 252.863281 346.757812 C 238.214844 352.933594 222.796875 356.945312 207.070312 358.796875 C 223.414062 357.871094 238.984375 354.9375 252.863281 351.082031 C 272.289062 343.210938 290.332031 331.636719 305.59375 317.4375 C 320.859375 303.242188 333.65625 286.726562 343.523438 268.980469 L 342.445312 270.214844 C 343.214844 268.671875 344.140625 267.128906 344.914062 266.050781 C 345.683594 264.96875 346.144531 264.199219 346.453125 264.351562 C 346.761719 264.351562 346.761719 264.96875 346.453125 266.203125 C 346.144531 267.285156 345.53125 268.828125 344.605469 270.523438 C 340.59375 279.167969 335.816406 287.65625 330.265625 295.679688 C 324.714844 303.703125 318.390625 311.109375 311.609375 318.210938 C 304.667969 325.15625 297.269531 331.636719 289.25 337.34375 C 281.234375 343.054688 272.597656 348.148438 263.65625 352.46875 C 227.730469 369.90625 185.328125 374.074219 145.855469 364.351562 C 126.121094 359.414062 107.15625 351.082031 90.195312 339.660156 C 73.234375 328.242188 58.125 313.890625 45.789062 297.375 C 33.453125 280.863281 24.046875 262.035156 18.035156 242.285156 C 11.867188 222.53125 9.554688 201.542969 10.324219 180.710938 C 11.714844 147.683594 22.816406 115.277344 41.472656 88.273438 C 59.972656 61.109375 86.1875 39.507812 116.253906 26.082031 C 120.722656 23.917969 125.039062 22.839844 128.125 22.066406 C 131.207031 21.449219 133.367188 21.449219 133.519531 22.222656 C 133.675781 23.609375 126.582031 27.160156 117.949219 31.171875 C 89.269531 44.136719 64.597656 65.125 47.023438 90.894531 C 29.289062 116.667969 18.652344 147.066406 16.800781 178.394531 C 16.03125 192.128906 16.492188 206.019531 18.960938 219.445312 C 21.273438 232.871094 25.28125 246.140625 30.523438 258.640625 C 22.507812 238.890625 18.652344 217.746094 18.652344 196.757812 C 18.1875 188.734375 18.496094 180.710938 19.269531 172.683594 C 20.039062 164.660156 21.582031 156.636719 23.429688 148.609375 C 25.589844 140.742188 28.058594 132.871094 31.292969 125.308594 C 34.53125 117.746094 38.234375 110.339844 42.550781 103.242188 C 52.882812 85.957031 65.988281 71.140625 80.945312 59.105469 C 95.898438 47.066406 112.707031 37.5 130.746094 31.019531 C 148.632812 24.535156 167.597656 20.832031 187.023438 20.214844 C 196.738281 19.90625 206.453125 20.371094 216.164062 21.605469 C 225.878906 22.839844 235.746094 25 245.308594 27.777344 C 264.117188 33.332031 280.769531 41.511719 295.726562 51.082031 C 303.128906 56.019531 310.066406 61.265625 316.695312 66.976562 C 323.171875 72.683594 329.339844 78.859375 334.890625 85.339844 C 340.59375 91.820312 345.683594 98.765625 350.308594 106.019531 C 354.933594 113.273438 359.097656 121.140625 362.796875 129.167969 C 366.34375 137.34375 369.429688 145.832031 371.742188 154.785156 C 374.054688 163.734375 375.75 172.992188 376.675781 182.714844 C 376.984375 186.109375 376.828125 189.96875 376.367188 191.203125 C 376.210938 191.820312 375.90625 191.820312 375.597656 191.203125 C 375.289062 190.585938 375.132812 189.351562 374.980469 187.652344 C 371.894531 150.464844 357.554688 116.820312 335.507812 89.816406 C 330.109375 83.023438 323.941406 76.699219 317.46875 70.832031 C 314.230469 67.746094 310.835938 65.125 307.445312 62.191406 C 305.75 60.800781 303.898438 59.566406 302.203125 58.179688 C 300.507812 56.789062 298.503906 55.710938 296.804688 54.320312 C 289.40625 49.382812 281.695312 44.753906 273.523438 40.894531 C 265.351562 37.035156 256.71875 33.640625 247.929688 31.019531 C 228.964844 25.308594 209.535156 22.839844 190.261719 23.148438 C 170.988281 23.609375 152.023438 27.007812 133.984375 33.488281 C 115.945312 39.96875 98.984375 49.382812 83.871094 61.574219 C 68.761719 73.765625 55.65625 88.582031 45.324219 105.554688 C 42.550781 110.183594 39.929688 114.816406 37.617188 119.597656 C 41.78125 111.882812 46.40625 104.476562 51.648438 97.683594 C 56.890625 90.894531 62.59375 84.566406 68.609375 78.703125 C 91.429688 54.9375 120.878906 38.425781 152.488281 31.328125 C 184.09375 24.226562 217.554688 26.390625 248.238281 37.808594 C 260.109375 42.285156 271.519531 47.839844 282.003906 54.628906 C 292.644531 61.417969 302.355469 69.445312 311.144531 78.242188 C 313.457031 80.402344 315.460938 82.871094 317.621094 85.183594 C 319.78125 87.5 321.628906 89.96875 323.632812 92.4375 C 327.488281 97.375 331.191406 102.625 334.429688 108.023438 C 340.902344 118.828125 346.300781 130.402344 350.15625 142.746094 C 351.082031 145.832031 352.003906 148.917969 352.160156 151.390625 C 352.46875 153.859375 352.46875 155.710938 352.003906 156.480469 C 351.695312 157.097656 350.925781 156.480469 350.15625 154.9375 C 349.539062 153.394531 348.613281 150.925781 347.6875 147.839844 Z M 121.957031 348.148438 C 111.011719 343.980469 100.523438 338.582031 90.65625 332.097656 C 109.621094 345.371094 131.363281 354.785156 154.027344 359.566406 C 176.695312 364.351562 200.4375 364.507812 223.257812 359.875 C 206.453125 362.5 189.027344 362.964844 171.761719 361.109375 C 154.644531 359.105469 137.683594 354.785156 121.957031 348.148438 Z M 121.957031 348.148438 " fill-opacity="1" fill-rule="nonzero"/></g><path fill="#d9d9d9" d="M 174.074219 374.226562 C 160.195312 372.683594 146.472656 369.445312 133.214844 365.125 C 119.953125 360.800781 107.308594 355.402344 95.589844 349.535156 C 94.511719 348.917969 93.742188 348.765625 94.203125 349.226562 C 94.667969 349.84375 95.898438 350.617188 97.132812 351.234375 C 108.390625 356.789062 120.722656 362.035156 133.519531 366.050781 C 146.320312 370.214844 159.886719 373.300781 173.148438 374.84375 C 174.691406 375 176.078125 375 176.230469 374.691406 C 176.539062 374.691406 175.460938 374.382812 174.074219 374.226562 Z M 174.074219 374.226562 " fill-opacity="1" fill-rule="nonzero"/><g clip-path="url(#ceb10af186)"><path fill="#d9d9d9" d="M 79.246094 340.433594 C 61.207031 328.394531 44.863281 312.652344 31.910156 293.980469 C 19.113281 275.308594 9.398438 253.703125 4.3125 230.863281 C -0.777344 208.023438 -1.546875 183.949219 2.308594 160.339844 C 6.164062 136.726562 14.796875 113.734375 27.441406 93.363281 C 47.945312 60.03125 78.167969 34.566406 112.550781 19.289062 C 114.710938 18.363281 116.867188 17.285156 119.027344 16.511719 L 125.65625 14.042969 C 130.128906 12.5 134.601562 10.957031 139.070312 9.875 C 143.542969 8.488281 148.167969 7.5625 152.792969 6.636719 C 157.421875 5.863281 162.046875 4.9375 166.824219 4.476562 C 171.453125 3.859375 176.230469 3.550781 181.011719 3.242188 C 183.324219 3.085938 185.789062 3.085938 188.105469 3.085938 C 190.417969 2.933594 192.882812 3.085938 195.195312 3.085938 C 197.507812 3.242188 199.976562 3.085938 202.289062 3.242188 C 204.601562 3.394531 207.070312 3.550781 209.382812 3.703125 C 211.695312 3.859375 214.160156 4.167969 216.472656 4.476562 C 217.707031 4.628906 218.789062 4.785156 220.019531 4.9375 L 223.566406 5.554688 C 236.054688 7.5625 248.390625 10.800781 259.957031 14.96875 C 271.671875 19.136719 282.621094 24.226562 292.953125 29.9375 C 294.648438 30.863281 295.882812 31.328125 295.417969 30.710938 C 294.800781 29.9375 293.105469 28.703125 291.101562 27.625 C 269.515625 15.585938 245.769531 7.40625 221.101562 3.703125 C 196.429688 0 171.144531 0.925781 146.472656 6.480469 C 121.957031 12.035156 98.367188 22.53125 77.707031 37.34375 C 57.351562 51.699219 39.621094 70.523438 26.515625 92.285156 C 13.871094 112.964844 5.238281 136.109375 1.535156 160.03125 C -2.316406 183.949219 -1.546875 208.332031 3.695312 231.636719 C 8.9375 254.9375 18.804688 276.851562 32.21875 295.679688 C 45.480469 314.507812 62.285156 330.402344 80.789062 342.4375 C 81.714844 343.054688 82.484375 343.210938 82.175781 342.746094 C 81.558594 342.128906 80.171875 341.050781 79.246094 340.433594 Z M 79.246094 340.433594 " fill-opacity="1" fill-rule="nonzero"/></g><path fill="#d9d9d9" d="M 147.242188 8.179688 C 134.136719 11.417969 121.339844 16.203125 109.160156 22.222656 C 97.132812 28.242188 85.570312 35.492188 75.085938 43.980469 C 64.445312 52.316406 54.578125 61.882812 45.941406 72.222656 C 37.152344 82.714844 29.445312 94.136719 22.816406 106.328125 C 15.566406 119.445312 10.324219 133.488281 6.933594 147.992188 C 3.542969 162.5 1.84375 177.625 2.617188 193.210938 C 2.925781 203.550781 4.464844 213.425781 6.472656 223.148438 C 8.476562 232.714844 11.25 241.976562 14.488281 250.925781 C 16.03125 255.402344 18.035156 259.875 19.886719 264.199219 C 20.964844 266.359375 21.890625 268.519531 22.96875 270.679688 C 24.046875 272.839844 25.128906 275 26.359375 277.160156 C 30.988281 285.648438 36.074219 293.980469 42.089844 302.160156 C 42.859375 303.242188 43.785156 304.167969 44.246094 304.320312 C 44.402344 304.167969 43.9375 303.394531 43.167969 302.316406 C 30.523438 284.566406 20.65625 265.585938 13.871094 245.523438 C 7.242188 225.464844 3.847656 204.167969 4.3125 182.097656 C 4.621094 171.914062 5.855469 161.726562 7.859375 151.699219 C 9.863281 141.976562 12.792969 132.253906 16.492188 122.839844 C 23.894531 104.011719 34.53125 86.726562 47.332031 71.449219 C 73.386719 41.050781 108.542969 19.136719 147.707031 8.949219 C 149.402344 8.488281 150.328125 8.179688 150.328125 7.871094 C 150.171875 7.714844 148.785156 7.871094 147.242188 8.179688 Z M 147.242188 8.179688 " fill-opacity="1" fill-rule="nonzero"/><path fill="#d9d9d9" d="M 34.6875 176.234375 C 33.300781 189.042969 33.453125 202.316406 35.457031 215.277344 C 37.460938 228.242188 41.164062 241.050781 46.558594 252.933594 C 51.957031 264.816406 58.894531 275.617188 66.757812 285.03125 C 74.777344 294.445312 83.71875 302.316406 92.816406 308.640625 C 93.742188 309.257812 94.050781 309.257812 93.585938 308.488281 C 93.125 307.871094 91.890625 306.789062 91.121094 306.171875 C 82.175781 299.84375 73.542969 291.976562 66.140625 282.5625 C 58.742188 273.148438 52.109375 262.5 47.175781 250.925781 C 42.242188 239.351562 38.695312 227.007812 36.847656 214.507812 C 35.148438 202.007812 34.839844 189.199219 36.074219 176.851562 C 36.230469 174.535156 36.382812 172.375 35.921875 172.066406 C 35.613281 172.066406 34.996094 173.765625 34.6875 176.234375 Z M 34.6875 176.234375 " fill-opacity="1" fill-rule="nonzero"/><path fill="#d9d9d9" d="M 187.949219 370.523438 C 174.074219 370.371094 160.195312 368.519531 146.628906 365.125 C 133.214844 361.726562 120.105469 356.636719 107.773438 350.308594 C 95.4375 343.980469 84.027344 336.109375 73.386719 327.316406 C 62.902344 318.519531 53.34375 308.488281 44.863281 297.683594 C 29.597656 276.234375 18.960938 251.851562 13.5625 226.234375 C 12.945312 222.53125 11.867188 219.597656 11.40625 219.753906 C 10.789062 219.753906 10.941406 222.992188 11.558594 226.699219 C 14.027344 239.816406 18.035156 252.625 23.277344 264.816406 C 22.96875 264.507812 22.660156 264.507812 22.660156 264.660156 C 3.542969 221.757812 1.84375 171.296875 18.1875 126.851562 C 19.113281 124.382812 19.578125 122.53125 19.269531 122.375 C 18.960938 122.222656 17.878906 124.074219 16.957031 126.542969 C 8.320312 149.691406 4.621094 174.691406 5.855469 199.226562 C 7.085938 223.765625 13.410156 247.992188 24.203125 269.90625 C 24.820312 271.605469 25.746094 273.457031 26.824219 275.464844 C 31.601562 284.566406 37.152344 293.210938 43.476562 301.234375 C 49.644531 309.257812 56.582031 316.667969 63.984375 323.609375 C 78.785156 337.34375 95.898438 348.609375 114.710938 356.945312 C 128.125 362.808594 142 367.285156 156.03125 370.0625 C 170.21875 372.839844 184.402344 373.917969 198.742188 373.609375 C 213.082031 373.300781 227.265625 371.140625 240.988281 367.285156 C 254.867188 363.425781 268.28125 358.023438 280.769531 350.925781 C 300.660156 339.660156 317.621094 324.074219 331.960938 306.171875 C 337.972656 298.765625 343.679688 290.585938 348.457031 282.40625 C 350.925781 278.242188 352.929688 274.074219 354.933594 269.90625 C 356.785156 265.585938 358.480469 261.417969 359.867188 257.253906 C 367.269531 234.105469 368.503906 212.191406 366.34375 191.820312 C 366.191406 190.585938 366.035156 190.433594 365.882812 191.359375 C 365.726562 192.128906 365.574219 193.828125 365.726562 194.753906 C 366.652344 204.9375 366.652344 215.742188 365.265625 226.699219 C 364.03125 237.5 361.71875 248.457031 358.789062 258.640625 C 351.082031 277.933594 340.132812 295.832031 326.71875 311.417969 C 313.148438 327.007812 297.269531 340.277344 279.535156 350.925781 C 272.445312 354.628906 265.042969 357.871094 257.640625 360.339844 C 250.242188 362.964844 242.6875 364.816406 235.132812 366.511719 C 219.710938 369.289062 204.140625 370.832031 187.949219 370.523438 Z M 187.949219 370.523438 " fill-opacity="1" fill-rule="nonzero"/></g></g></g><g fill="#d9d9d9" fill-opacity="1"><g transform="translate(40.776105, 276.499904)"><g><path d="M 122.171875 -125.371094 L 126.054688 -158.9375 C 116.234375 -163.277344 105.273438 -165.332031 93.855469 -165.332031 C -16.671875 -165.332031 -16.898438 0.457031 93.855469 0.457031 C 105.273438 0.457031 119.660156 -2.285156 129.707031 -6.394531 L 125.371094 -40.191406 C 119.203125 -36.996094 108.015625 -32.882812 93.855469 -32.882812 C 29.230469 -32.882812 29.230469 -132.449219 93.855469 -132.449219 C 108.015625 -132.449219 116.007812 -128.566406 122.171875 -125.371094 Z M 122.171875 -125.371094 "/></g></g></g><g fill="#d9d9d9" fill-opacity="1"><g transform="translate(178.248606, 276.499904)"><g><path d="M 68.964844 3.425781 L 76.273438 3.425781 L 143.867188 -163.277344 L 106.1875 -163.277344 L 84.265625 -107.785156 L 72.617188 -75.128906 L 60.742188 -108.925781 L 39.050781 -163.277344 L 1.371094 -163.277344 Z M 68.964844 3.425781 "/></g></g></g></svg>