<svg xmlns="http://www.w3.org/2000/svg" xmlns:xlink="http://www.w3.org/1999/xlink" width="363" zoomAndPan="magnify" viewBox="0 0 272.25 91.5" height="122" preserveAspectRatio="xMidYMid meet" version="1.0"><defs><g/><clipPath id="1afd4cc3d0"><path d="M 119.722656 84.015625 L 250.832031 84.015625 L 250.832031 87.742188 L 119.722656 87.742188 Z M 119.722656 84.015625 " clip-rule="nonzero"/></clipPath><clipPath id="82d91f6758"><path d="M 140.753906 4.433594 L 252.089844 4.433594 L 252.089844 8.164062 L 140.753906 8.164062 Z M 140.753906 4.433594 " clip-rule="nonzero"/></clipPath></defs><g fill="#ffffff" fill-opacity="1"><g transform="translate(0.366848, 87.236495)"><g><path d="M 68.566406 -22.320312 C 64.289062 -9.355469 56.136719 -2.136719 44.375 -2.136719 C 26.597656 -2.136719 15.101562 -18.980469 15.101562 -45.578125 C 15.101562 -74.847656 28.335938 -82.199219 40.363281 -82.199219 C 52.394531 -82.199219 61.082031 -74.316406 66.5625 -60.414062 L 69.902344 -60.414062 C 66.429688 -68.699219 65.226562 -75.382812 63.488281 -82.867188 C 62.417969 -83.003906 61.882812 -82.734375 60.148438 -82.734375 C 52.527344 -82.734375 50.121094 -85.140625 41.835938 -85.140625 C 18.710938 -85.140625 4.679688 -65.359375 4.679688 -41.703125 C 4.679688 -17.109375 20.183594 1.46875 42.503906 1.46875 C 60.816406 1.46875 69.101562 -10.828125 72.175781 -22.320312 Z M 68.566406 -22.320312 "/></g></g></g><g fill="#ffffff" fill-opacity="1"><g transform="translate(67.192288, 87.236495)"><g><path d="M 58.007812 -83.003906 L 58.007812 -80.996094 C 64.691406 -79.929688 68.96875 -77.789062 67.097656 -72.308594 L 45.710938 -10.023438 L 23.390625 -72.042969 C 21.386719 -77.386719 18.445312 -79.929688 29.539062 -80.996094 L 29.539062 -83.003906 C 20.582031 -82.601562 10.292969 -82.601562 1.335938 -83.003906 L 1.335938 -80.996094 C 11.359375 -80.0625 11.09375 -77.523438 12.429688 -73.78125 L 39.5625 0.667969 L 45.308594 0.667969 L 69.769531 -70.039062 C 72.308594 -77.386719 75.25 -80.0625 83.136719 -80.996094 L 83.136719 -83.003906 C 75.917969 -82.601562 65.359375 -82.601562 58.007812 -83.003906 Z M 58.007812 -83.003906 "/></g></g></g><g clip-path="url(#1afd4cc3d0)"><path fill="#ffffff" d="M 119.722656 84.015625 L 250.679688 84.015625 L 250.679688 87.851562 L 119.722656 87.851562 Z M 119.722656 84.015625 " fill-opacity="1" fill-rule="nonzero"/></g><g fill="#ffffff" fill-opacity="1"><g transform="translate(138.743704, 66.26651)"><g><path d="M 36.78125 0 L 28.8125 0 L 25.921875 -8.828125 L 11.25 -8.828125 L 8.359375 0 L 0.578125 0 L 13.8125 -38.328125 L 23.546875 -38.328125 Z M 18.21875 -30.328125 L 13.296875 -15.203125 L 23.828125 -15.203125 L 18.875 -30.328125 Z M 18.21875 -30.328125 "/></g></g></g><g fill="#ffffff" fill-opacity="1"><g transform="translate(176.096997, 66.26651)"><g><path d="M 19.796875 -38.328125 C 22.535156 -38.328125 24.878906 -37.820312 26.828125 -36.8125 C 28.773438 -35.8125 30.242188 -34.40625 31.234375 -32.59375 C 32.234375 -30.789062 32.734375 -28.691406 32.734375 -26.296875 C 32.734375 -23.898438 32.234375 -21.800781 31.234375 -20 C 30.242188 -18.195312 28.773438 -16.789062 26.828125 -15.78125 C 24.878906 -14.78125 22.535156 -14.28125 19.796875 -14.28125 L 12.5625 -14.28125 L 12.5625 0 L 4.984375 0 L 4.984375 -38.328125 Z M 18.796875 -20.296875 C 23.003906 -20.296875 25.109375 -22.296875 25.109375 -26.296875 C 25.109375 -30.316406 23.003906 -32.328125 18.796875 -32.328125 L 12.5625 -32.328125 L 12.5625 -20.296875 Z M 18.796875 -20.296875 "/></g></g></g><g fill="#ffffff" fill-opacity="1"><g transform="translate(211.117343, 66.26651)"><g><path d="M 19.796875 -38.328125 C 22.535156 -38.328125 24.878906 -37.820312 26.828125 -36.8125 C 28.773438 -35.8125 30.242188 -34.40625 31.234375 -32.59375 C 32.234375 -30.789062 32.734375 -28.691406 32.734375 -26.296875 C 32.734375 -23.898438 32.234375 -21.800781 31.234375 -20 C 30.242188 -18.195312 28.773438 -16.789062 26.828125 -15.78125 C 24.878906 -14.78125 22.535156 -14.28125 19.796875 -14.28125 L 12.5625 -14.28125 L 12.5625 0 L 4.984375 0 L 4.984375 -38.328125 Z M 18.796875 -20.296875 C 23.003906 -20.296875 25.109375 -22.296875 25.109375 -26.296875 C 25.109375 -30.316406 23.003906 -32.328125 18.796875 -32.328125 L 12.5625 -32.328125 L 12.5625 -20.296875 Z M 18.796875 -20.296875 "/></g></g></g><g clip-path="url(#82d91f6758)"><path fill="#ffffff" d="M 140.753906 4.433594 L 252.09375 4.433594 L 252.09375 8.273438 L 140.753906 8.273438 Z M 140.753906 4.433594 " fill-opacity="1" fill-rule="nonzero"/></g></svg>